<svg xmlns="http://www.w3.org/2000/svg" viewBox="-12 -11 59.9 59.9">
  <defs>
    <style>.cls-1{fill:#8672fa;fill-rule:evenodd;}</style>
  </defs>
  <title>Asset 4</title>
  <g id="Layer_2" data-name="Layer 2">
    <g id="Layer_1-2" data-name="Layer 1">
      <g id="Styleguide">
        <g id="Desktop-HD">
          <g id="Icons">
            <g id="Group-15">
              <path id="Fill-13" class="cls-1"
                d="M24.9,14.2l-5.07-2.92a3.72,3.72,0,0,0-3.76,0L11,14.21,4.81,10.66a.42.42,0,0,1,0-.74l8.28-4.79a9.65,9.65,0,0,1,9.72,0l8.25,4.78a.42.42,0,0,1,0,.74Zm-5,19.46V23.11a2.75,2.75,0,0,1,1.37-2.38l9.14-5.27ZM11.18,1.82,1.73,7.29a3.47,3.47,0,0,0,0,6l12.91,7.45A2.74,2.74,0,0,1,16,23.12V36.4a3.08,3.08,0,0,0,5.75,1.54l13.28-23A6.19,6.19,0,0,0,32.81,6.5L24.7,1.81a13.5,13.5,0,0,0-13.52,0Z" />
            </g>
          </g>
        </g>
      </g>
    </g>
  </g>
</svg>